<!-- <svg viewBox="0 0 24 24" fill="none" xmlns="http://www.w3.org/2000/svg" stroke="#fd0860"><g id="SVGRepo_bgCarrier" stroke-width="0"></g><g id="SVGRepo_tracerCarrier" stroke-linecap="round" stroke-linejoin="round"></g><g id="SVGRepo_iconCarrier"> <path d="M10.0376 5.31617L10.6866 6.4791C11.2723 7.52858 11.0372 8.90532 10.1147 9.8278C10.1147 9.8278 10.1147 9.8278 10.1147 9.8278C10.1146 9.82792 8.99588 10.9468 11.0245 12.9755C13.0525 15.0035 14.1714 13.8861 14.1722 13.8853C14.1722 13.8853 14.1722 13.8853 14.1722 13.8853C15.0947 12.9628 16.4714 12.7277 17.5209 13.3134L18.6838 13.9624C20.2686 14.8468 20.4557 17.0692 19.0628 18.4622C18.2258 19.2992 17.2004 19.9505 16.0669 19.9934C14.1588 20.0658 10.9183 19.5829 7.6677 16.3323C4.41713 13.0817 3.93421 9.84122 4.00655 7.93309C4.04952 6.7996 4.7008 5.77423 5.53781 4.93723C6.93076 3.54428 9.15317 3.73144 10.0376 5.31617Z" fill="#fd0860"></path> </g></svg> -->
<svg viewBox="-1.68 -1.68 27.36 27.36" fill="none" xmlns="http://www.w3.org/2000/svg" stroke="#F0005C" stroke-width="0.00024000000000000003"><g id="SVGRepo_bgCarrier" stroke-width="0"></g><g id="SVGRepo_tracerCarrier" stroke-linecap="round" stroke-linejoin="round"></g><g id="SVGRepo_iconCarrier"> <path d="M16.5562 12.9062L16.1007 13.359C16.1007 13.359 15.0181 14.4355 12.0631 11.4972C9.10812 8.55901 10.1907 7.48257 10.1907 7.48257L10.4775 7.19738C11.1841 6.49484 11.2507 5.36691 10.6342 4.54348L9.37326 2.85908C8.61028 1.83992 7.13596 1.70529 6.26145 2.57483L4.69185 4.13552C4.25823 4.56668 3.96765 5.12559 4.00289 5.74561C4.09304 7.33182 4.81071 10.7447 8.81536 14.7266C13.0621 18.9492 17.0468 19.117 18.6763 18.9651C19.1917 18.9171 19.6399 18.6546 20.0011 18.2954L21.4217 16.883C22.3806 15.9295 22.1102 14.2949 20.8833 13.628L18.9728 12.5894C18.1672 12.1515 17.1858 12.2801 16.5562 12.9062Z" fill="#F0005C"></path> </g></svg>